<?xml version="1.0" encoding="UTF-8" standalone="no"?>
<!-- Created with Inkscape (http://www.inkscape.org/) -->

<svg
   xmlns:dc="http://purl.org/dc/elements/1.1/"
   xmlns:cc="http://creativecommons.org/ns#"
   xmlns:rdf="http://www.w3.org/1999/02/22-rdf-syntax-ns#"
   xmlns:svg="http://www.w3.org/2000/svg"
   xmlns="http://www.w3.org/2000/svg"
   xmlns:sodipodi="http://sodipodi.sourceforge.net/DTD/sodipodi-0.dtd"
   xmlns:inkscape="http://www.inkscape.org/namespaces/inkscape"
   width="1000"
   height="858.64697"
   viewBox="0 0 264.58333 227.18368"
   version="1.1"
   id="svg8"
   inkscape:version="0.92.2 (5c3e80d, 2017-08-06)"
   sodipodi:docname="Motorola Solutions (Stacked).svg">
  <defs
     id="defs2">
    <clipPath
       clipPathUnits="userSpaceOnUse"
       id="clipPath18">
      <path
         d="M 0,586.772 H 566.929 V 0 H 0 Z"
         id="path16"
         inkscape:connector-curvature="0" />
    </clipPath>
    <clipPath
       clipPathUnits="userSpaceOnUse"
       id="clipPath28">
      <path
         d="M -103.108,71.3223 H 103.108 V -71.3213 h -206.216 z"
         id="path26"
         inkscape:connector-curvature="0" />
    </clipPath>
    <clipPath
       clipPathUnits="userSpaceOnUse"
       id="clipPath60">
      <path
         d="M -103.108,71.3223 H 103.108 V -71.3213 h -206.216 z"
         id="path58"
         inkscape:connector-curvature="0" />
    </clipPath>
    <clipPath
       clipPathUnits="userSpaceOnUse"
       id="clipPath92">
      <path
         d="M -103.108,71.3223 H 103.108 V -71.3213 h -206.216 z"
         id="path90"
         inkscape:connector-curvature="0" />
    </clipPath>
    <clipPath
       clipPathUnits="userSpaceOnUse"
       id="clipPath124">
      <path
         d="M -103.108,71.3223 H 103.108 V -71.3213 h -206.216 z"
         id="path122"
         inkscape:connector-curvature="0" />
    </clipPath>
    <clipPath
       clipPathUnits="userSpaceOnUse"
       id="clipPath156">
      <path
         d="M -103.108,71.3223 H 103.108 V -71.3213 h -206.216 z"
         id="path154"
         inkscape:connector-curvature="0" />
    </clipPath>
    <clipPath
       clipPathUnits="userSpaceOnUse"
       id="clipPath188">
      <path
         d="M -103.108,71.3223 H 103.108 V -71.3213 h -206.216 z"
         id="path186"
         inkscape:connector-curvature="0" />
    </clipPath>
    <clipPath
       clipPathUnits="userSpaceOnUse"
       id="clipPath220">
      <path
         d="M -103.108,71.3223 H 103.108 V -71.3213 h -206.216 z"
         id="path218"
         inkscape:connector-curvature="0" />
    </clipPath>
    <clipPath
       clipPathUnits="userSpaceOnUse"
       id="clipPath252">
      <path
         d="M -103.108,71.3223 H 103.108 V -71.3213 h -206.216 z"
         id="path250"
         inkscape:connector-curvature="0" />
    </clipPath>
  </defs>
  <sodipodi:namedview
     id="base"
     pagecolor="#ffffff"
     bordercolor="#666666"
     borderopacity="1.0"
     inkscape:pageopacity="0.0"
     inkscape:pageshadow="2"
     inkscape:zoom="0.35"
     inkscape:cx="33.761725"
     inkscape:cy="194.88899"
     inkscape:document-units="px"
     inkscape:current-layer="layer1"
     showgrid="false"
     units="px"
     inkscape:window-width="1366"
     inkscape:window-height="705"
     inkscape:window-x="-8"
     inkscape:window-y="-8"
     inkscape:window-maximized="1" />
  <metadata
     id="metadata5">
    <rdf:RDF>
      <cc:Work
         rdf:about="">
        <dc:format>image/svg+xml</dc:format>
        <dc:type
           rdf:resource="http://purl.org/dc/dcmitype/StillImage" />
        <dc:title></dc:title>
      </cc:Work>
    </rdf:RDF>
  </metadata>
  <g
     inkscape:label="Layer 1"
     inkscape:groupmode="layer"
     id="layer1"
     transform="translate(0,-69.816303)">
    <path
       style="fill:#000000;fill-opacity:1;fill-rule:nonzero;stroke:none;stroke-width:0.93687952"
       id="path1111"
       d="m 34.514328,273.47592 c -6.073735,-0.002 -10.41317,2.48756 -11.574341,6.81942 -0.165114,0.59071 -0.250517,1.1412 -0.250517,1.62665 0.01779,3.47359 3.793918,4.16931 7.445106,4.62978 3.691291,0.45303 7.247432,0.73073 7.194873,2.87796 0,0.21031 0.0036,0.43559 -0.06227,0.68825 -0.620636,2.34237 -3.618734,4.13172 -8.195911,4.1292 -3.698801,-0.007 -5.875991,-1.30384 -5.881044,-3.56614 0,-0.29785 0.04235,-0.60064 0.124903,-0.93852 l 0.06227,-0.18789 h -3.628698 l -0.06227,0.1249 c -0.107822,0.57317 -0.124903,1.11616 -0.124903,1.62666 0.01068,3.86897 3.123144,5.68835 8.696378,5.69337 6.586763,0 11.304073,-2.6452 12.512821,-7.13228 0.140204,-0.54071 0.250518,-1.07865 0.250518,-1.56413 0.0036,-2.02204 -1.338811,-3.51355 -4.129235,-4.00409 l -7.883085,-1.43866 c -2.104633,-0.38058 -2.685236,-1.17366 -2.690218,-2.06463 0,-0.20497 0.0071,-0.41311 0.06227,-0.62559 0.630635,-2.37493 3.691291,-3.94412 6.819488,-3.94156 3.308398,0.002 5.93862,0.7132 5.943602,3.1282 0,0.20782 -0.02491,0.45303 -0.06227,0.68821 v 0.12491 h 3.566175 l 0.06227,-0.0619 c 0.107822,-0.51822 0.124903,-0.99353 0.124903,-1.43898 -0.01068,-4.04661 -4.174321,-5.18778 -8.321064,-5.19276 z m 28.028723,0 c -9.359645,0 -14.279647,6.45659 -15.703647,11.76202 -0.300337,1.10864 -0.500466,2.23227 -0.500466,3.3785 0,2.15715 0.630635,4.26186 2.189751,5.81845 1.559081,1.5616 4.059133,2.5651 7.757898,2.5651 9.359573,0 14.279682,-6.38899 15.703611,-11.69943 0.295355,-1.11362 0.437979,-2.29746 0.437979,-3.44109 0,-2.15972 -0.570604,-4.25933 -2.127229,-5.81848 -1.559045,-1.56158 -4.059133,-2.56507 -7.757933,-2.56507 z m 117.307689,0 c -9.3621,0 -14.28463,6.45407 -15.70362,11.76202 -0.29998,1.11117 -0.43783,2.23729 -0.43783,3.3785 0,2.15715 0.56562,4.26186 2.12723,5.81845 1.55652,1.55908 4.0566,2.56762 7.75793,2.5651 9.35706,0.002 14.27963,-6.39151 15.70359,-11.69943 0.295,-1.11117 0.50079,-2.29746 0.50079,-3.44109 0,-2.15972 -0.63309,-4.25933 -2.18975,-5.81848 -1.55912,-1.56158 -4.05921,-2.56507 -7.75795,-2.56507 z m 57.05848,0 c -6.07121,-0.002 -10.41072,2.48756 -11.57435,6.81942 -0.16262,0.59071 -0.25016,1.1412 -0.25016,1.62665 0.0178,3.4686 3.79641,4.16685 7.44514,4.62978 3.69375,0.45303 7.30992,0.73073 7.2574,2.87796 0,0.21031 -0.0562,0.43559 -0.1249,0.68825 -0.61808,2.34237 -3.55856,4.1292 -8.13325,4.1292 -3.70133,-0.0107 -5.93862,-1.30885 -5.94364,-3.56614 0,-0.29999 0.0448,-0.60064 0.12491,-0.93852 l 0.0623,-0.18789 h -3.62871 v 0.1249 c -0.11032,0.57317 -0.18789,1.11616 -0.18789,1.62666 0.0107,3.86897 3.12821,5.68835 8.69639,5.69337 6.59171,0 11.30906,-2.6452 12.51289,-7.13228 0.1427,-0.54299 0.25017,-1.08118 0.25017,-1.56413 0.007,-2.02461 -1.33636,-3.51355 -4.12927,-4.00409 l -7.88305,-1.43901 c -2.10464,-0.38051 -2.68773,-1.17366 -2.69026,-2.0646 0,-0.20497 0.0705,-0.41314 0.12491,-0.62559 0.63316,-2.36995 3.62873,-3.94412 6.75693,-3.94156 3.30839,0.002 5.93609,0.7132 5.94363,3.12816 0,0.20782 -0.0213,0.45026 -0.0619,0.68825 v 0.12491 h 3.62873 v -0.0619 c 0.10747,-0.51823 0.18753,-0.99357 0.18753,-1.43898 -0.0107,-4.04665 -4.23688,-5.18782 -8.38359,-5.1928 z m -156.34769,0.56306 -0.06192,0.1249 -5.943637,22.27283 h 20.08308 l 0.688211,-2.75284 H 78.685175 l 5.317948,-19.6451 h -3.440988 z m 117.24511,0 -6.00616,22.39791 h 3.44106 l 5.00512,-18.70662 8.44618,18.70662 h 4.50451 l 6.0062,-22.39791 h -3.44099 v 0.1249 l -5.00512,18.64414 -8.44622,-18.76925 z m -94.53437,0.0619 -3.566141,13.26359 c -0.292863,1.09608 -0.437872,2.08716 -0.437872,3.00304 0.0071,4.40203 3.315903,6.62182 8.321033,6.63182 6.05128,0 11.24404,-3.21332 12.9508,-9.57234 l 3.62869,-13.32611 h -3.44102 l -0.0623,0.0623 -3.56611,13.38867 c -1.12868,4.17678 -4.29691,6.68936 -8.82149,6.69434 -3.66628,-0.0178 -5.4957,-1.62417 -5.50573,-4.44203 0,-0.67316 0.0979,-1.38646 0.31315,-2.18971 l 3.62873,-13.51393 h -3.44106 z m 26.27691,0 -0.81333,2.94052 h 9.3847 l -5.1929,19.39483 h 3.44102 l 5.19283,-19.39483 h 9.38463 l 0.81333,-2.94052 z m 27.77846,0 v 0.0623 l -6.00609,22.2728 h 3.44099 l 6.00612,-22.33546 h -3.44102 z m -95.472801,2.12691 c 4.349434,0.0107 6.86952,2.42749 6.882011,6.25642 0,0.84838 -0.112805,1.77679 -0.375314,2.75278 -1.448981,5.40552 -6.076262,9.00924 -11.386702,9.00924 -4.356943,-0.0107 -6.937061,-2.36743 -6.944605,-6.19383 0,-0.84838 0.175078,-1.77683 0.437944,-2.75285 1.454034,-5.40556 6.068718,-9.07176 11.386701,-9.07176 z m 117.307681,0 c 4.35447,0.0107 6.93217,2.42749 6.94463,6.25642 0,0.84838 -0.17544,1.77679 -0.43784,2.75278 -1.45154,5.40307 -6.07126,9.00924 -11.38668,9.00924 -4.35446,-0.0107 -6.87212,-2.36494 -6.88212,-6.19383 0,-0.84838 0.11743,-1.77683 0.37549,-2.75285 1.45653,-5.40303 6.07623,-9.07176 11.3867,-9.07176 z"
       inkscape:connector-curvature="0"
       sodipodi:nodetypes="cccccccccccccccccccccccccccccscscscscsscscccscsccccccccccccccccccccccccccccccccccccccccccccccccccccccccccccccccccccccccccccccccccccccccccccccc" />
    <path
       inkscape:connector-curvature="0"
       d="m 132.11765,69.81627 c -36.55051,0 -66.172912,29.717653 -66.172912,66.17291 0,36.58056 29.622402,66.17291 66.172912,66.17291 36.53044,0 66.17288,-29.59235 66.17288,-66.17291 0,-36.239649 -29.15617,-66.17291 -66.17288,-66.17291 z m -18.6738,18.673776 18.54847,61.285224 0.12522,0.12526 0.12522,-0.12526 18.54847,-61.285224 23.93754,78.580364 h -4.51178 c 0,0 -3.00284,-13.72082 -7.89563,-21.93232 -2.67698,-4.35132 -6.76267,-7.90571 -12.2821,-7.77028 -3.93025,0.0569 -7.38929,2.00525 -11.53012,7.89558 -2.57673,3.54931 -6.3917,12.53275 -6.3917,12.53275 0,0 -3.81998,-8.98344 -6.3917,-12.53275 -4.21602,-5.89033 -7.54472,-7.84046 -11.4048,-7.89558 -5.5495,-0.13522 -9.68531,3.41896 -12.40742,7.77028 -4.877741,8.2115 -7.895635,21.93232 -7.895635,21.93232 H 89.506084 L 113.44363,88.490046 Z"
       id="path144"
       style="fill:#000000;fill-opacity:1;fill-rule:nonzero;stroke:none;stroke-width:1.87674284"
       sodipodi:nodetypes="ssssscccccccccccccccccc" />
    <path
       sodipodi:nodetypes="cccccccccccccccccccccccccccccccccccccccccccccccccccccccccccccccscccccccccccccccccccccccccccccccccccccccccccccccccc"
       inkscape:connector-curvature="0"
       d="m 59.998969,232.50074 c -1.679197,0.0178 -3.661258,0.24803 -5.192806,0.56306 -6.596759,1.31379 -14.847717,7.18235 -13.388712,14.82772 1.201207,6.39653 9.835059,9.86257 19.582543,7.94561 9.156881,-1.74928 15.115503,-8.77644 13.889227,-14.95281 -1.276306,-6.07871 -8.406108,-8.38358 -14.890252,-8.38358 z m 63.877961,0 c -1.71675,0.0178 -3.71131,0.24803 -5.25538,0.56306 -6.55921,1.31379 -14.88526,7.18235 -13.45128,14.82772 1.25129,6.39653 9.9477,9.86257 19.70769,7.94561 9.13186,-1.74928 15.05043,-8.77644 13.76411,-14.95281 -1.21373,-6.07871 -8.31603,-8.38358 -14.76514,-8.38358 z m 69.3836,0 c -1.7418,0.0178 -3.64623,0.24803 -5.25538,0.56306 -6.50918,1.31379 -14.83519,7.18235 -13.38871,14.82772 1.21376,6.39653 9.87511,9.86257 19.58257,7.94561 9.15686,-1.74928 15.13801,-8.77644 13.82666,-14.95281 -1.20124,-6.07871 -8.34357,-8.38358 -14.76514,-8.38358 z m -164.668737,0.81308 -8.133336,9.50977 -2.815391,-9.38462 H 6.5066578 L 0,255.46146 h 7.0071699 l 3.5661611,-12.13736 3.190783,12.13736 h 4.504609 l 10.32307,-11.38663 -3.3159,11.38663 h 8.946671 l 6.193842,-22.14764 z m 50.113843,0 -1.814345,7.25743 h 9.259479 l -3.566153,14.89046 h 8.633844 l 3.878995,-14.95284 h 9.447164 l 1.62668,-7.06969 -27.465664,-0.1249 z m 170.549754,0 -14.95287,22.14764 h 7.44514 l 2.56517,-3.8163 0.0623,-0.1249 h 10.57334 v 0.1249 l 0.93845,3.8163 h 8.69644 l -5.00512,-22.14764 h -10.3231 z m -103.8564,0.1249 -6.31897,22.02246 h 8.19591 l 1.8769,-6.63171 6.56924,0.1249 c 2.37742,-0.23984 2.50255,1.43898 2.50255,1.43898 0,0 -0.0925,1.51407 -0.2503,3.06564 -0.11021,1.71683 1.56413,2.00208 1.56413,2.00208 h 8.88409 c -0.71072,-0.56811 -0.75075,-1.71925 -0.75075,-2.43998 0,-0.55812 0.93093,-1.89191 0.62561,-4.00412 -0.20775,-1.84184 -2.26732,-2.31491 -2.56509,-2.56514 -0.26784,-0.11031 0.0624,-0.43787 0.0624,-0.43787 0,0 5.59072,-1.59919 6.13131,-6.88205 0.64817,-5.27791 -5.44308,-5.69337 -5.44308,-5.69337 h -21.08409 z m 69.13331,0 -5.69332,22.02246 h 22.27282 l 1.5641,-6.06865 h -13.7641 l 4.06668,-15.95381 z m -22.39793,4.75503 c 0.32101,-0.0213 0.68382,-0.007 1.06361,0 2.67523,0.21493 5.26288,1.35141 5.69333,3.37854 1.23627,6.08117 -5.24038,8.64382 -4.50464,8.25843 -3.73883,1.92956 -9.46216,1.29131 -10.13536,-2.56513 -0.67572,-3.69126 2.18721,-7.38757 4.56718,-8.25851 1.50717,-0.53673 2.3528,-0.74593 3.31588,-0.81333 z m -133.136425,0.0619 c 0.327452,-0.0107 0.631892,0.0213 0.938477,0.0623 2.670212,0 5.350462,1.22626 5.693322,3.25335 1.298827,6.08114 -5.200318,8.64382 -4.379492,8.25836 -3.788884,1.92949 -9.559781,1.29138 -10.197957,-2.56503 -0.675675,-3.69136 2.252331,-7.3876 4.629754,-8.25854 1.25942,-0.42769 2.333454,-0.70746 3.315896,-0.7507 z m 63.815375,0 c 0.33571,-0.0107 0.68511,0.0213 1.00104,0.0623 2.6227,0 5.2504,1.22626 5.63076,3.25335 1.33636,6.08114 -5.16276,8.64382 -4.37948,8.25836 -3.77635,1.92949 -9.60736,1.29138 -10.19792,-2.56503 -0.64818,-3.69136 2.23978,-7.3876 4.6297,-8.25854 1.23127,-0.42769 2.30884,-0.70746 3.3159,-0.7507 z m 29.53028,0.25016 9.13436,0.0623 c 0,0 1.76429,-0.1249 1.62667,1.68925 -0.1201,2.09713 -2.37744,2.50255 -2.37744,2.50255 h -9.44718 l 1.06361,-4.25432 z m 99.85231,1.31387 1.50151,6.50673 h -0.12526 -5.63081 -0.12526 z"
       id="path1146"
       style="fill:#000000;fill-opacity:1;fill-rule:nonzero;stroke:none;stroke-width:0.93687952" />
  </g>
</svg>
